<svg xmlns="http://www.w3.org/2000/svg" width="22.408" height="22.408" viewBox="0 0 22.408 22.408">
  <path id="Icon_awesome-info-circle" data-name="Icon awesome-info-circle" d="M11.766.563a11.2,11.2,0,1,0,11.2,11.2A11.206,11.206,0,0,0,11.766.563Zm0,4.969a1.9,1.9,0,1,1-1.9,1.9A1.9,1.9,0,0,1,11.766,5.532ZM14.3,17.007a.542.542,0,0,1-.542.542H9.779a.542.542,0,0,1-.542-.542V15.923a.542.542,0,0,1,.542-.542h.542V12.489H9.779a.542.542,0,0,1-.542-.542V10.863a.542.542,0,0,1,.542-.542H12.67a.542.542,0,0,1,.542.542v4.518h.542a.542.542,0,0,1,.542.542Z" transform="translate(-0.563 -0.563)"/>
</svg>
